<svg viewBox="0 0 1000 1200" xmlns="http://www.w3.org/2000/svg">
  <defs>
    <linearGradient id="pv-cell-gradient" x1="0%" y1="0%" x2="100%" y2="100%">
      <stop offset="0%" stop-color="#0d1b2a" />
      <stop offset="50%" stop-color="#12253a" />
      <stop offset="100%" stop-color="#1b263b" />
    </linearGradient>
    <linearGradient id="frame-gradient" x1="0%" y1="0%" x2="100%" y2="0%">
      <stop offset="0%" stop-color="#e2e8f0" />
      <stop offset="50%" stop-color="#f8fafc" />
      <stop offset="100%" stop-color="#94a3b8" />
    </linearGradient>
    <linearGradient id="pole-gradient" x1="0%" y1="0%" x2="100%" y2="0%">
      <stop offset="0%" stop-color="#4b5563" />
      <stop offset="30%" stop-color="#e5e7eb" />
      <stop offset="70%" stop-color="#9ca3af" />
      <stop offset="100%" stop-color="#4b5563" />
    </linearGradient>
  </defs>

  <!-- ============================================================== -->
  <!-- 1. FIXED / STATIONARY STRUCTURE (Pole, Base, Hinge) -->
  <!-- ============================================================== -->

  <!-- Group: Support Pole (Fixed) -->
  <g id="support-pole">
    <rect x="475" y="470" width="50" height="610" rx="2" fill="url(#pole-gradient)" />
    <line x1="475" y1="470" x2="475" y2="1080" stroke="#334155" stroke-width="1.5" />
    <line x1="525" y1="470" x2="525" y2="1080" stroke="#1e293b" stroke-width="2" />
    <ellipse cx="500" cy="470" rx="25" ry="8" fill="#e5e7eb" stroke="#475569" stroke-width="1.5" />
  </g>

  <!-- Group: Base Plate (Fixed) -->
  <g id="base-plate">
    <polygon points="390,1095 410,1075 590,1075 610,1095 610,1105 590,1115 410,1115 390,1105" fill="url(#pole-gradient)" stroke="#334155" stroke-width="2" />
    <polygon points="440,1075 475,1075 475,1020" fill="#9ca3af" stroke="#334155" stroke-width="1.2" />
    <polygon points="560,1075 525,1075 525,1020" fill="#4b5563" stroke="#334155" stroke-width="1.2" />
  </g>

  <!-- Group: Anchor Bolts (Fixed) -->
  <g id="anchor-bolts">
    <rect x="417" y="1067" width="6" height="22" fill="#e2e8f0" stroke="#475569" stroke-width="1" />
    <polygon points="413,1081 416,1077 424,1077 427,1081 424,1085 416,1085" fill="#cbd5e1" stroke="#1e293b" stroke-width="1" />
  </g>

  <!-- Group: Grounding Wire (Fixed) -->
  <g id="grounding-wire">
    <path d="M 465,490 Q 460,540 462,700 Q 464,900 462,1015 Q 460,1070 435,1082" fill="none" stroke="#eab308" stroke-width="4" stroke-dasharray="12,12" />
    <path d="M 465,490 Q 460,540 462,700 Q 464,900 462,1015 Q 460,1070 435,1082" fill="none" stroke="#22c55e" stroke-width="4" stroke-dasharray="0,12,12,0" />
  </g>

  <!-- Group: Pivot Hinge (Stationary Hinge Axis Assembly) -->
  <g id="pivot-hinge">
    <rect x="465" y="460" width="70" height="85" rx="4" fill="url(#pole-gradient)" stroke="#334155" stroke-width="2" />
    <circle cx="500" cy="500" r="15" fill="#334155" stroke="#0f172a" stroke-width="1.5" />
    <circle cx="500" cy="500" r="7" fill="#f8fafc" stroke="#0f172a" stroke-width="1.5" />
  </g>

  <!-- ============================================================== -->
  <!-- 2. ROTATING TRACKER ASSEMBLY (Tilt angle transform around 500,500) -->
  <!-- ============================================================== -->
  <g id="rotating-tracker-assembly" transform="rotate(0, 500, 500)">
    <!-- Group: Tilt Bracket -->
    <g id="tilt-bracket">
      <path d="M 515,480 L 595,420 A 75 75 0 0 1 615,525 L 535,525 Z" fill="#94a3b8" stroke="#334155" stroke-width="1.5" />
    </g>

    <!-- Group: Support Arms -->
    <g id="support-arms">
      <polygon points="330,270 670,270 675,285 325,285" fill="#64748b" stroke="#1e293b" stroke-width="1.5" />
      <polygon points="500,500 350,280 360,275 508,495" fill="#94a3b8" stroke="#334155" stroke-width="1.2" />
      <polygon points="500,500 650,280 640,275 492,495" fill="#64748b" stroke="#334155" stroke-width="1.2" />
    </g>

    <!-- Group: Junction Box -->
    <g id="junction-box">
      <rect x="460" y="290" width="80" height="55" rx="6" fill="#1e293b" stroke="#475569" stroke-width="2" />
    </g>

    <!-- Group: Cables -->
    <g id="cables">
      <path d="M 486,364 Q 480,410 460,430 Q 440,460 480,500" fill="none" stroke="#1a1c20" stroke-width="6" stroke-linecap="round" />
    </g>

    <!-- Group: Aluminum Frame -->
    <g id="aluminum-frame">
      <polygon points="250,200 750,200 810,480 190,480" fill="url(#frame-gradient)" stroke="#94a3b8" stroke-width="2" />
    </g>

    <!-- Group: Solar Panel -->
    <g id="solar-panel">
      <polygon points="260,202 740,202 798,473 202,473" fill="#080e18" stroke="#1e293b" stroke-width="1" />
      <g id="solar-cells">
        <!-- 6x10 Photovoltaic Monocrystalline Cells Grid -->
      </g>
    </g>
  </g>
</svg>